<?xml version="1.0" standalone="no"?>
<!DOCTYPE svg PUBLIC "-//W3C//DTD SVG 20010904//EN"
 "http://www.w3.org/TR/2001/REC-SVG-20010904/DTD/svg10.dtd">
<svg version="1.0" xmlns="http://www.w3.org/2000/svg"
 width="512.000000pt" height="512.000000pt" viewBox="0 0 512.000000 512.000000"
 preserveAspectRatio="xMidYMid meet">
<metadata>
Created by potrace 1.14, written by Peter Selinger 2001-2017
</metadata>
<g transform="translate(0.000000,512.000000) scale(0.100000,-0.100000)"
fill="#000000" stroke="none">
<path d="M1665 5109 c-622 -28 -970 -133 -1228 -369 -279 -256 -395 -615 -427
-1320 -13 -291 -13 -1429 0 -1720 28 -601 108 -921 297 -1175 256 -344 624
-480 1393 -515 291 -13 1429 -13 1720 0 601 28 921 108 1175 297 344 256 480
624 515 1393 13 291 13 1429 0 1720 -35 769 -168 1131 -513 1391 -252 190
-571 271 -1177 299 -260 11 -1489 11 -1755 -1z m985 -614 c21 -44 44 -107 51
-140 15 -78 13 -315 -6 -570 -50 -662 -45 -838 30 -1135 46 -183 139 -428 232
-615 20 -38 37 -72 39 -74 6 -6 158 31 189 46 130 65 157 229 55 331 -46 47
-87 65 -145 65 l-51 0 58 456 c72 571 92 663 188 866 90 190 262 399 413 503
68 46 129 82 142 82 3 0 5 -693 5 -1540 l0 -1540 -360 0 -359 0 -11 -42 c-66
-261 -194 -479 -360 -615 -36 -30 -84 -70 -108 -90 -24 -20 -55 -53 -69 -74
l-26 -39 -27 43 c-14 23 -68 75 -119 115 -201 161 -342 377 -403 618 l-21 84
-359 0 -358 0 0 1540 c0 894 4 1540 9 1540 5 0 50 -27 100 -60 273 -179 488
-488 555 -800 12 -58 136 -1001 136 -1039 0 -4 -24 -8 -53 -7 -68 1 -133 -36
-175 -99 -61 -92 -51 -180 28 -256 43 -42 56 -49 140 -69 77 -18 95 -19 106
-8 21 21 138 283 188 420 52 144 97 317 123 473 24 150 22 479 -6 875 -27 376
-31 546 -12 620 18 71 70 183 111 240 l33 44 29 -34 c16 -19 47 -71 68 -115z"/>
<path d="M1490 3083 l0 -783 58 0 58 0 24 58 c23 56 121 167 178 203 l24 14
-46 387 c-48 403 -64 487 -116 611 -31 76 -110 209 -154 262 l-25 30 -1 -782z"/>
<path d="M3570 3793 c-65 -88 -144 -248 -170 -343 -17 -65 -110 -796 -110
-862 0 -16 15 -33 52 -58 58 -40 128 -128 154 -195 l17 -45 58 0 59 0 0 785
c0 432 -2 785 -5 785 -3 0 -28 -30 -55 -67z"/>
<path d="M2521 2321 c-18 -55 -69 -172 -111 -260 l-78 -159 62 -31 c33 -16 85
-51 114 -77 l53 -46 50 47 c27 25 78 60 113 76 l63 30 -62 122 c-35 67 -84
176 -109 242 -26 66 -50 128 -54 138 -5 12 -17 -12 -41 -82z"/>
<path d="M1490 1765 l0 -315 239 0 238 0 7 78 c4 42 13 109 21 147 14 78 14
79 -49 89 -118 19 -252 126 -308 246 l-33 70 -57 0 -58 0 0 -315z"/>
<path d="M3476 2006 c-60 -123 -175 -211 -309 -237 -56 -11 -59 -13 -54 -38 5
-27 22 -149 33 -233 l5 -48 240 0 239 0 0 315 0 315 -58 0 -59 0 -37 -74z"/>
<path d="M2196 1613 c-9 -49 -16 -105 -16 -125 l0 -38 136 0 136 0 -7 33 c-19
88 -84 171 -161 203 -65 27 -70 23 -88 -73z"/>
<path d="M2815 1678 c-79 -40 -129 -104 -144 -182 l-8 -46 135 0 135 0 -6 73
c-3 39 -11 96 -17 125 -13 60 -28 65 -95 30z"/>
<path d="M2210 1222 c0 -25 48 -148 87 -224 39 -77 136 -218 148 -218 3 0 5
101 5 225 l0 225 -120 0 c-66 0 -120 -4 -120 -8z"/>
<path d="M2660 1003 l1 -228 38 43 c57 65 130 191 167 290 50 130 55 122 -86
122 l-120 0 0 -227z"/>
</g>
</svg>
